<svg width="42" height="42" viewBox="0 0 42 42" fill="none" xmlns="http://www.w3.org/2000/svg">
<path d="M39.375 21C39.375 31.143 31.1522 39.375 21 39.375C10.8478 39.375 2.62498 31.143 2.62498 21C2.62498 10.8478 10.8478 2.62498 21 2.62498C31.1522 2.62498 39.375 10.8478 39.375 21Z" fill="#283544"/>
<path d="M29.6128 16.3503C29.5126 16.4088 27.1256 17.6433 27.1256 20.3803C27.2381 23.5018 30.1378 24.5964 30.1876 24.5964C30.1378 24.6549 29.7498 26.0876 28.6003 27.5895C27.6881 28.8832 26.6756 30.1875 25.1381 30.1875C23.6756 30.1875 23.1506 29.3253 21.4631 29.3253C19.6508 29.3253 19.1381 30.1875 17.7506 30.1875C16.2131 30.1875 15.1256 28.8133 14.1636 27.5317C12.9139 25.8544 11.8516 23.2222 11.8141 20.6948C11.7889 19.3555 12.0644 18.0391 12.7639 16.9208C13.7511 15.3597 15.5136 14.3 17.4383 14.2651C18.9131 14.2187 20.2256 15.2086 21.1256 15.2086C21.9881 15.2086 23.6006 14.2651 25.425 14.2651C26.2125 14.2658 28.3126 14.4869 29.6128 16.3503ZM21.0008 13.9977C20.7383 12.7746 21.4631 11.5516 22.1381 10.7714C23.0006 9.8279 24.3628 9.18751 25.5375 9.18751C25.6125 10.4106 25.1373 11.6101 24.2878 12.4837C23.5256 13.4272 22.2131 14.1374 21.0008 13.9977Z" fill="white"/>
</svg>
