<svg width="27" height="39" viewBox="0 0 27 39" fill="none" xmlns="http://www.w3.org/2000/svg">
<path d="M13.5 1.76087H7.63044C6.07373 1.76087 4.58078 2.37927 3.48003 3.48003C2.37927 4.58078 1.76087 6.07373 1.76087 7.63044C1.76087 9.18714 2.37927 10.6801 3.48003 11.7808C4.58078 12.8816 6.07373 13.5 7.63044 13.5M13.5 1.76087V13.5M13.5 1.76087H19.3696C20.1404 1.76087 20.9036 1.91269 21.6158 2.20766C22.3279 2.50264 22.9749 2.93499 23.52 3.48003C24.065 4.02507 24.4974 4.67212 24.7923 5.38425C25.0873 6.09638 25.2391 6.85963 25.2391 7.63044C25.2391 8.40124 25.0873 9.16449 24.7923 9.87662C24.4974 10.5888 24.065 11.2358 23.52 11.7808C22.9749 12.3259 22.3279 12.7582 21.6158 13.0532C20.9036 13.3482 20.1404 13.5 19.3696 13.5M13.5 13.5H7.63044M13.5 13.5H19.3696M13.5 13.5V25.2391M7.63044 13.5C6.07373 13.5 4.58078 14.1184 3.48003 15.2192C2.37927 16.3199 1.76087 17.8129 1.76087 19.3696C1.76087 20.9263 2.37927 22.4192 3.48003 23.52C4.58078 24.6207 6.07373 25.2391 7.63044 25.2391M19.3696 13.5C18.5988 13.5 17.8355 13.6518 17.1234 13.9468C16.4113 14.2418 15.7642 14.6741 15.2192 15.2192C14.6741 15.7642 14.2418 16.4113 13.9468 17.1234C13.6518 17.8355 13.5 18.5988 13.5 19.3696C13.5 20.1404 13.6518 20.9036 13.9468 21.6158C14.2418 22.3279 14.6741 22.9749 15.2192 23.52C15.7642 24.065 16.4113 24.4974 17.1234 24.7923C17.8355 25.0873 18.5988 25.2391 19.3696 25.2391C20.1404 25.2391 20.9036 25.0873 21.6158 24.7923C22.3279 24.4974 22.9749 24.065 23.52 23.52C24.065 22.9749 24.4974 22.3279 24.7923 21.6158C25.0873 20.9036 25.2391 20.1404 25.2391 19.3696C25.2391 18.5988 25.0873 17.8355 24.7923 17.1234C24.4974 16.4113 24.065 15.7642 23.52 15.2192C22.9749 14.6741 22.3279 14.2418 21.6158 13.9468C20.9036 13.6518 20.1404 13.5 19.3696 13.5ZM7.63044 25.2391C6.07373 25.2391 4.58078 25.8575 3.48003 26.9583C2.37927 28.059 1.76087 29.552 1.76087 31.1087C1.76087 32.6654 2.37927 34.1584 3.48003 35.2591C4.58078 36.3599 6.07373 36.9783 7.63044 36.9783C9.18714 36.9783 10.6801 36.3599 11.7808 35.2591C12.8816 34.1584 13.5 32.6654 13.5 31.1087V25.2391M7.63044 25.2391H13.5" stroke="#F5F5F5" stroke-width="3.5" stroke-linecap="round" stroke-linejoin="round"/>
</svg>
