<svg width="42" height="42" viewBox="0 0 42 42" fill="none" xmlns="http://www.w3.org/2000/svg">
<path d="M39.3768 21.4081C39.3768 19.8973 39.2517 18.7948 38.981 17.6515H21.3768V24.4706H31.7101C31.5018 26.1652 30.3768 28.7173 27.8768 30.4322L27.8417 30.6605L33.4078 34.8863L33.7935 34.924C37.3351 31.7185 39.3768 27.0023 39.3768 21.4081Z" fill="#4285F4"/>
<path d="M21.3757 39.375C26.4381 39.375 30.688 37.7416 33.7923 34.9242L27.8756 30.4323C26.2923 31.5144 24.1673 32.2699 21.3757 32.2699C16.4174 32.2699 12.2091 29.0645 10.709 24.6341L10.4891 24.6524L4.70138 29.042L4.62569 29.2482C7.70898 35.2507 14.0423 39.375 21.3757 39.375Z" fill="#34A853"/>
<path d="M10.7101 24.6341C10.3143 23.4908 10.0852 22.2657 10.0852 20.9999C10.0852 19.734 10.3143 18.5091 10.6893 17.3658L10.6788 17.1223L4.81853 12.6622L4.62679 12.7515C3.35601 15.2424 2.62684 18.0395 2.62684 20.9999C2.62684 23.9604 3.35601 26.7574 4.62679 29.2482L10.7101 24.6341Z" fill="#FBBC05"/>
<path d="M21.3758 9.72994C24.8966 9.72994 27.2715 11.2203 28.6257 12.4658L33.9174 7.40248C30.6675 4.44208 26.4382 2.62498 21.3758 2.62498C14.0424 2.62498 7.709 6.74912 4.62569 12.7516L10.6882 17.3658C12.2092 12.9354 16.4175 9.72994 21.3758 9.72994Z" fill="#EB4335"/>
</svg>
